<svg xmlns="http://www.w3.org/2000/svg" xmlns:xlink="http://www.w3.org/1999/xlink" width="358.086" height="78" viewBox="0 0 358.086 78"><defs><filter id="a" x="13.947" y="7.299" width="74.613" height="50.09" filterUnits="userSpaceOnUse"><feOffset dx="2" dy="2" input="SourceAlpha"/><feGaussianBlur stdDeviation="1" result="b"/><feFlood flood-opacity="0.161"/><feComposite operator="in" in2="b"/><feComposite in="SourceGraphic"/></filter><filter id="c" x="37.828" y="16.383" width="65.754" height="28.047" filterUnits="userSpaceOnUse"><feOffset dx="2" dy="2" input="SourceAlpha"/><feGaussianBlur stdDeviation="1" result="d"/><feFlood flood-opacity="0.161"/><feComposite operator="in" in2="d"/><feComposite in="SourceGraphic"/></filter><filter id="e" x="35.085" y="45.316" width="32.551" height="32.684" filterUnits="userSpaceOnUse"><feOffset dx="2" dy="2" input="SourceAlpha"/><feGaussianBlur stdDeviation="1" result="f"/><feFlood flood-opacity="0.161"/><feComposite operator="in" in2="f"/><feComposite in="SourceGraphic"/></filter><filter id="g" x="0" y="16.352" width="26.737" height="28.07" filterUnits="userSpaceOnUse"><feOffset dx="2" dy="2" input="SourceAlpha"/><feGaussianBlur stdDeviation="1" result="h"/><feFlood flood-opacity="0.161"/><feComposite operator="in" in2="h"/><feComposite in="SourceGraphic"/></filter><filter id="i" x="39.898" y="0" width="23.035" height="13.401" filterUnits="userSpaceOnUse"><feOffset dx="2" dy="2" input="SourceAlpha"/><feGaussianBlur stdDeviation="1" result="j"/><feFlood flood-opacity="0.161"/><feComposite operator="in" in2="j"/><feComposite in="SourceGraphic"/></filter><filter id="k" x="145.164" y="16" width="37.102" height="18.813" filterUnits="userSpaceOnUse"><feOffset dx="2" dy="2" input="SourceAlpha"/><feGaussianBlur stdDeviation="1" result="l"/><feFlood flood-opacity="0.161"/><feComposite operator="in" in2="l"/><feComposite in="SourceGraphic"/></filter><filter id="m" x="112.085" y="16.32" width="22.584" height="23.68" filterUnits="userSpaceOnUse"><feOffset dx="2" dy="2" input="SourceAlpha"/><feGaussianBlur stdDeviation="1" result="n"/><feFlood flood-opacity="0.161"/><feComposite operator="in" in2="n"/><feComposite in="SourceGraphic"/></filter><filter id="o" x="128.738" y="16.188" width="22.34" height="18.898" filterUnits="userSpaceOnUse"><feOffset dx="2" dy="2" input="SourceAlpha"/><feGaussianBlur stdDeviation="1" result="p"/><feFlood flood-opacity="0.161"/><feComposite operator="in" in2="p"/><feComposite in="SourceGraphic"/></filter><filter id="q" x="112.086" y="34.748" width="246" height="18" filterUnits="userSpaceOnUse"><feOffset dx="2" dy="2" input="SourceAlpha"/><feGaussianBlur stdDeviation="1" result="r"/><feFlood flood-opacity="0.161"/><feComposite operator="in" in2="r"/><feComposite in="SourceGraphic"/></filter><filter id="s" x="112.086" y="46.462" width="89" height="17" filterUnits="userSpaceOnUse"><feOffset dx="2" dy="2" input="SourceAlpha"/><feGaussianBlur stdDeviation="1" result="t"/><feFlood flood-opacity="0.161"/><feComposite operator="in" in2="t"/><feComposite in="SourceGraphic"/></filter></defs><g transform="translate(-5013.227 730)"><g transform="matrix(1, 0, 0, 1, 5013.23, -730)" filter="url(#a)"><path d="M17399.121,9189.358a2.745,2.745,0,0,0,1.344,2.536,8.072,8.072,0,0,0,4.006,1.26c.678.05,1-.01,1.273.479,1.684,2.956.053,6.854-1.617,9.152a4.98,4.98,0,0,1-1.828,1.615l-.572.3a12.356,12.356,0,0,0-1.406.788,18.759,18.759,0,0,0-3.064,2.321c-.2.2-.361.356-.568.56-.182.182-.365.338-.533.529l-.484.575c-1.906,2.442-3.268,4.708-3.268,8.036a6.367,6.367,0,0,0,2.564,5.121c3.084,2.521,8.121,2.014,11.631.723a20.43,20.43,0,0,0,4.43-2.268c1.111-.764,2.072-1.626,3.1-2.473a10.3,10.3,0,0,1,2.008-1.373,15.8,15.8,0,0,1,3.23-1.281,26.683,26.683,0,0,1,11.934-.563,16.962,16.962,0,0,1,6.813,3.083c.838.616,1.533,1.477,2.32,2.127.221.185.4.322.623.5s.389.292.6.467a20.155,20.155,0,0,0,6.684,3.271c2.313.629,5.57.907,7.889,0a7.2,7.2,0,0,0,4.064-3.322,8.565,8.565,0,0,0,.057-6.767,14.024,14.024,0,0,0-.605-1.332,18.1,18.1,0,0,0-5.512-6.178c-.375-.278-.76-.521-1.162-.784a18.084,18.084,0,0,0-8.822-2.9c-2.24,0-4.164.146-5.895,1.258a7.457,7.457,0,0,0-2.277,2.169,5.088,5.088,0,0,0-.506,1c-.451,1.141-.285,1.014-1.312,1.625-4.145,2.461-10.439,2.094-14.625.035-1.355-.668-1.211-.646-1.539-2.078a6.863,6.863,0,0,0-4.678-4.526c-.133-.042-.207-.071-.334-.108-.607-.18-.416-.047-.787-.59a7.327,7.327,0,0,1-1.354-4.137,11.74,11.74,0,0,1,1.508-4.857c1.543-2.646,1.252-1.105,4.66-3.289.178-.114.324-.192.512-.3a10.7,10.7,0,0,1,2.863-1.153c.836-.211,1.646-.424,2.611-.584a22.111,22.111,0,0,1,7.338.02,19.116,19.116,0,0,1,2.461.617c2.475.822,2.049,1.021,4.146,2.058a24.738,24.738,0,0,0,4.469,1.737c2.9.814,7.258,1.215,10.15-.035a3.878,3.878,0,0,0,1.488-1.016c1.5-1.756.551-3.657-.875-5.072a16.353,16.353,0,0,0-6.137-3.637,22.5,22.5,0,0,0-3.92-1.033c-3.182-.529-7.949-.674-9.791,1.852a2.144,2.144,0,0,1-1.379,1.052,12.664,12.664,0,0,1-2.045.409l-2.344.159c-1.561-.11-5.062-.142-5.939-1.409a3.873,3.873,0,0,0-1.256-1.244c-2.045-1.25-5.477-1.329-8.424-.863a22.6,22.6,0,0,0-7.332,2.516,13.3,13.3,0,0,0-2.832,2.043A5.318,5.318,0,0,0,17399.121,9189.358Z" transform="translate(-17377.46 -9173.04)" fill="#14477a" fill-rule="evenodd"/></g><g transform="matrix(1, 0, 0, 1, 5013.23, -730)" filter="url(#c)"><path d="M47174.59,20605.418h-1.457c-2.641,0-6.109,1.229-7.613,2.723-1.352,1.352-2.117,2.293-2.117,4.506,0,2.145,1.711,3.951,3.441,4.994a14.437,14.437,0,0,0,14.285-.189l1.98-1.029a22.042,22.042,0,0,1,4.129-1.82,24.237,24.237,0,0,1,7.457-.709,18.31,18.31,0,0,1,7.531,2.438c.25.15.465.266.715.416a23.251,23.251,0,0,1,4.465,3.352l2.828,2.74c1.789,1.5,5.32,3.506,7.707,3.506,1.711,0,2.754-.131,4.012-1.381a4.418,4.418,0,0,0,.832-1.416c1.539-4.178-2.039-10.551-4.887-13.348l-.98-1.025c-.2-.2-.34-.275-.539-.471-2.051-2.02-5.961-4.406-8.742-4.406h-.887a4.241,4.241,0,0,0-3.578,1.992c-.793,1.543-.336,1.818-1.512,2.609-.277.182-.605.373-.906.535a18.03,18.03,0,0,1-6.75,1.656c-.465.023-.906-.031-1.348.033a7.48,7.48,0,0,1-1.348-.037,19.121,19.121,0,0,1-7.051-1.3,5.825,5.825,0,0,1-1.988-1.51,12,12,0,0,0-7.68-2.855Z" transform="translate(-47124.57 -20586.91)" fill="#14477a" fill-rule="evenodd"/></g><g transform="matrix(1, 0, 0, 1, 5013.23, -730)" filter="url(#e)"><path d="M43757.4,57030.023a12.7,12.7,0,0,0,6.273-1.27,16.941,16.941,0,0,0,2.031-1.219l.9-.723a8.089,8.089,0,0,0,.844-.777,13.4,13.4,0,0,0,3.063-13.723c-.125-.324-.227-.582-.336-.848a13.523,13.523,0,0,0-3.992-5.27l-1.094-.781a14.329,14.329,0,0,0-3.406-1.555,13.343,13.343,0,0,0-15.977,18.02c.125.3.234.5.367.816a18.377,18.377,0,0,0,1.461,2.3,13.215,13.215,0,0,0,5.7,4.191,13.042,13.042,0,0,0,4.164.84Z" transform="translate(-43708.59 -56957.02)" fill="#14477a" fill-rule="evenodd"/></g><g transform="matrix(1, 0, 0, 1, 5013.23, -730)" filter="url(#g)"><path d="M0,20583.236v.8a4.47,4.47,0,0,0,4.4,4.605H5.09c2.61,0,6.407-2.148,8.311-3.912l1.052-.941a11.259,11.259,0,0,0,1.021-1.045l.927-1.076c2.311-2.93,4.336-6.338,4.336-10.211a4.745,4.745,0,0,0-2.365-4.379c-3.309-1.594-7.969.906-10.469,2.93-.2.158-.367.314-.551.453-.21.16-.313.311-.529.471a26.2,26.2,0,0,0-3.35,3.719,21.957,21.957,0,0,0-2.217,3.779,14.4,14.4,0,0,0-1.257,4.8Z" transform="translate(1 -20549.22)" fill="#14477a" fill-rule="evenodd"/></g><g transform="matrix(1, 0, 0, 1, 5013.23, -730)" filter="url(#i)"><path d="M49748.7,3.712c0,1.629,1.82,2.542,3.148,2.983,3.727,1.225,9.516,1.159,12.617-.939a2.585,2.585,0,0,0,1.27-1.795,1.732,1.732,0,0,0-.441-1.371c-1.27-1.75-5.316-2.49-7.23-2.49h-.117a16.934,16.934,0,0,0-6.258.848c-1.109.363-2.988,1.405-2.988,2.764Z" transform="translate(-49707.8 0.9)" fill="#14477a" fill-rule="evenodd"/></g><g transform="matrix(1, 0, 0, 1, 5013.23, -730)" filter="url(#k)"><path d="M71643.211,96924.7a3.013,3.013,0,0,0,2.164,1.172c.539.07,6.734.016,8.43.07,1.031.047.586,1.953.508,2.063a1,1,0,0,1-.8.391h-10.25v-2.172C71643.258,96925.633,71643.211,96925.266,71643.211,96924.7Zm-16.281-.977s0,5.641-.023,6.9c0,.75-.281.617,1.469.617h2.133v-7.109c0-2.93,1.367-2.555,4.555-2.555a19.8,19.8,0,0,1,3.383.109c1.172.273,1.227,1.367,1.227,2.383v7.172h14.008c1.2,0,2.7-.008,3.578-.859a1.707,1.707,0,0,0,.531-.906,8.347,8.347,0,0,0,.164-1.016c.063-1.062.125-3.141-.586-3.969a2.5,2.5,0,0,0-1.516-.883c-1-.242-6.547-.164-8.047-.164-.414,0-.672-.07-1.133-.07a1.958,1.958,0,0,1-.289-1.594c.227-.781.969-.523,1.469-.57,1.422-.109,5.531.039,5.906-.031.344-.039.609-.031.945-.078a2.7,2.7,0,0,0,2.508-2.609h-8.453c-2.359,0-5.773-.641-5.852,2.555a9,9,0,0,1-.562-.914,2.631,2.631,0,0,0-.727-.742,5.254,5.254,0,0,0-2.187-.789,46.169,46.169,0,0,0-5.852-.109c-3.07,0-6.047.023-6.531,3.844C71627.008,96922.531,71626.953,96923.656,71626.93,96923.719Z" transform="translate(-71480.73 -96901.43)" fill="#14477a" fill-rule="evenodd"/></g><g transform="matrix(1, 0, 0, 1, 5013.23, -730)" filter="url(#m)"><path d="M26174.68,97365.07a37.59,37.59,0,0,0-3.988,0c0-.578,0-1.172,0-1.758s-.09-1.078-.057-1.711l.117-1.641c.16-1.812,2.227-1.547,3.811-1.547.648,0,1.1-.078,1.711-.047.363,0,.479.047.855.047a5.3,5.3,0,0,1,2.287.375,2.136,2.136,0,0,1,.674,1.969,11.568,11.568,0,0,1-.014,2.578,1.777,1.777,0,0,1-.523,1.266,2.263,2.263,0,0,1-1.342.422c-1.238,0-2.33.047-3.531.047Zm-7.578-3.469v11.391h2a1.966,1.966,0,0,0,1.537-1.648l.057-3.187c2.1,0,7.744.148,9.564-.242a4.43,4.43,0,0,0,1.973-.875c1.66-1.289,1.449-4.1,1.449-6.281,0-4.266-1.807-5.422-6.035-5.422-1.748,0-5.74-.133-7.26.266a5.733,5.733,0,0,0-1.135.391,3.5,3.5,0,0,0-1.061.82,3.126,3.126,0,0,0-.477.719,9.814,9.814,0,0,0-.609,4.07Z" transform="translate(-26054.02 -97337.99)" fill="#14477a" fill-rule="evenodd"/></g><g transform="matrix(1, 0, 0, 1, 5013.23, -730)" filter="url(#o)"><path d="M49136.867,97177.219c-.156-4.234.582-6.141-1.559-7.219-1.3-.641-3.738-.523-5.68-.523-2.488,0-6.383-.4-8.016,1.266a3.114,3.114,0,0,0-.613.945,4.692,4.692,0,0,0-.336,1.25,30.171,30.171,0,0,0,.023,5.875c.707,4.188,5.211,3.477,8.941,3.477h4.672c.586,0,.984-.055,1.535-.055a2.788,2.788,0,0,0-1.586-2.516,16.837,16.837,0,0,0-4-.156h-4.156c-1.812,0-2-.5-2-2.172a28.173,28.173,0,0,1,.078-4.023,1.534,1.534,0,0,1,.344-.7,1.044,1.044,0,0,1,.727-.3c1.313-.164,4.7-.1,6.145-.1,2.457-.016,2,.43,2,2.055-1.73,0-3.609-.07-5.238.055-.4.031-.559-.086-1.031.266a6.035,6.035,0,0,0-1.48,2.578h11.23Z" transform="translate(-48990.79 -97152.25)" fill="#14477a" fill-rule="evenodd"/></g><g transform="matrix(1, 0, 0, 1, 5013.23, -730)" filter="url(#q)"><text transform="translate(113.09 44.75)" fill="#14477a" font-size="9" font-family="NunitoSans-ExtraBold, Nunito Sans" font-weight="800" letter-spacing="0.1em"><tspan x="0" y="0">POLITEKNIK ELEKTRONIKA NEGERI SURABAYA</tspan></text></g><g transform="matrix(1, 0, 0, 1, 5013.23, -730)" filter="url(#s)"><text transform="translate(113.09 55.46)" fill="#14477a" font-size="8" font-family="NunitoSans-Light, Nunito Sans" font-weight="300" letter-spacing="0.08em"><tspan x="0" y="0">Bridge to the Future</tspan></text></g></g></svg>