<svg xmlns="http://www.w3.org/2000/svg" xmlns:xlink="http://www.w3.org/1999/xlink" width="640.197" height="139.416" viewBox="0 0 640.197 139.416">
  <defs>
    <style>
      .cls-1, .cls-4, .cls-5 {
        fill: #14477a;
      }

      .cls-1, .cls-2 {
        fill-rule: evenodd;
      }

      .cls-2 {
        fill: #f3c804;
      }

      .cls-3 {
        fill: none;
      }

      .cls-4 {
        font-size: 16px;
        font-family: NunitoSans-ExtraBold, Nunito Sans;
        font-weight: 800;
        letter-spacing: 0.1em;
      }

      .cls-5 {
        font-size: 15px;
        font-family: NunitoSans-Light, Nunito Sans;
        font-weight: 300;
        letter-spacing: 0.08em;
      }

      .cls-6 {
        filter: url(#Union_1);
      }
    </style>
    <filter id="Union_1" x="2.038" y="1.539" width="181.532" height="137.877" filterUnits="userSpaceOnUse">
      <feOffset dy="2" input="SourceAlpha"/>
      <feGaussianBlur stdDeviation="2.5" result="blur"/>
      <feFlood/>
      <feComposite operator="in" in2="blur"/>
      <feComposite in="SourceGraphic"/>
    </filter>
  </defs>
  <g id="Group_173" data-name="Group 173" transform="translate(-110.227 -69)">
    <path id="Path_9" data-name="Path 9" class="cls-1" d="M17405.182,9196.595a5.223,5.223,0,0,0,2.555,4.824,15.356,15.356,0,0,0,7.621,2.4c1.289.1,1.895-.02,2.422.91,3.2,5.623.1,13.035-3.074,17.408a9.506,9.506,0,0,1-3.477,3.072l-1.09.574a23.25,23.25,0,0,0-2.676,1.5,35.613,35.613,0,0,0-5.828,4.414c-.375.381-.687.678-1.082,1.064-.344.346-.7.643-1.012,1.008l-.922,1.094c-3.629,4.645-6.215,8.955-6.215,15.285a12.114,12.114,0,0,0,4.875,9.74c5.867,4.8,15.449,3.83,22.125,1.375a38.973,38.973,0,0,0,8.426-4.312c2.113-1.453,3.941-3.094,5.891-4.7a19.591,19.591,0,0,1,3.82-2.613,30.031,30.031,0,0,1,6.145-2.436,50.74,50.74,0,0,1,22.7-1.072,32.272,32.272,0,0,1,12.957,5.863c1.594,1.172,2.914,2.809,4.414,4.047.418.35.77.613,1.184.953.395.328.738.555,1.145.887a38.337,38.337,0,0,0,12.711,6.221c4.4,1.2,10.6,1.727,15.008-.008,3.289-1.289,6.086-3.127,7.73-6.318,1.98-3.861,1.66-8.936.105-12.871a26.7,26.7,0,0,0-1.148-2.533c-2.4-4.783-6.277-8.592-10.484-11.75-.715-.529-1.445-.99-2.211-1.492-4.449-2.887-11.266-5.518-16.781-5.518-4.262,0-7.922.277-11.211,2.393a14.129,14.129,0,0,0-4.332,4.127,9.505,9.505,0,0,0-.961,1.893c-.859,2.17-.543,1.928-2.5,3.09-7.883,4.682-19.855,3.982-27.816.066-2.578-1.27-2.3-1.229-2.926-3.951-.957-4.115-4.824-7.268-8.9-8.609-.254-.08-.395-.137-.637-.207-1.156-.342-.789-.09-1.5-1.121a13.945,13.945,0,0,1-2.574-7.869c0-3.018,1.727-7.3,2.867-9.238,2.934-5.035,2.383-2.1,8.863-6.258.34-.217.617-.365.973-.576a20.4,20.4,0,0,1,5.449-2.2c1.59-.4,3.129-.8,4.965-1.109a42.056,42.056,0,0,1,13.957.037,36.146,36.146,0,0,1,4.684,1.174c4.707,1.564,3.895,1.941,7.887,3.914a47,47,0,0,0,8.5,3.3c5.512,1.549,13.8,2.311,19.3-.068a7.343,7.343,0,0,0,2.832-1.932c2.852-3.34,1.047-6.955-1.664-9.646a31.094,31.094,0,0,0-11.672-6.918,42.806,42.806,0,0,0-7.457-1.965c-6.051-1.008-15.121-1.283-18.625,3.521a4.078,4.078,0,0,1-2.621,2,24.172,24.172,0,0,1-3.891.779l-4.457.3c-2.969-.211-9.629-.27-11.3-2.682a6.872,6.872,0,0,0-1.059-1.322,6.78,6.78,0,0,0-1.332-1.043c-3.887-2.379-10.414-2.529-16.023-1.643a43.025,43.025,0,0,0-13.945,4.785,25.3,25.3,0,0,0-5.387,3.885C17407.268,9191.761,17405.182,9194.249,17405.182,9196.595Z" transform="translate(-17255.648 -9098.452)"/>
    <path id="Path_10" data-name="Path 10" class="cls-2" d="M47184.68,20606.43h-2.766c-5.023,0-11.625,2.336-14.484,5.18-2.57,2.57-4.023,4.359-4.023,8.57,0,4.078,3.25,7.516,6.547,9.5,7.984,4.766,19.188,4.465,27.164-.363l3.773-1.957a41.729,41.729,0,0,1,7.852-3.461c5.039-1.461,8.9-1.348,14.18-1.348,4.055,0,10.633,2.441,14.328,4.637.477.285.883.5,1.359.789a44.54,44.54,0,0,1,8.492,6.375l5.383,5.211c3.4,2.863,10.117,6.672,14.656,6.672,3.258,0,5.242-.25,7.633-2.629a8.272,8.272,0,0,0,1.578-2.691c2.93-7.949-3.875-20.07-9.289-25.391l-1.867-1.949c-.383-.375-.648-.523-1.023-.895-3.906-3.844-11.344-8.383-16.633-8.383h-1.687a8.067,8.067,0,0,0-6.8,3.789c-1.508,2.938-.641,3.461-2.875,4.965-.523.344-1.148.711-1.719,1.016a34.373,34.373,0,0,1-12.844,3.152c-.883.043-1.727-.059-2.562.063a14.227,14.227,0,0,1-2.562-.07,36.339,36.339,0,0,1-13.414-2.477c-2.281-1.039-2.359-1.637-3.781-2.871a22.8,22.8,0,0,0-14.609-5.434Z" transform="translate(-46981.227 -20504.135)"/>
    <path id="Path_11" data-name="Path 11" class="cls-1" d="M43768.883,57054.1c5.023,0,7.617-.437,11.93-2.414a33.326,33.326,0,0,0,3.867-2.32l1.7-1.375a16.332,16.332,0,0,0,1.609-1.477,25.484,25.484,0,0,0,5.82-26.1c-.234-.617-.43-1.109-.633-1.617a25.844,25.844,0,0,0-7.594-10.023l-2.086-1.484a27.208,27.208,0,0,0-6.477-2.953c-21.086-5.766-38.312,14.688-30.391,34.273.242.563.445.953.7,1.555a35.752,35.752,0,0,0,2.773,4.367,25.161,25.161,0,0,0,10.852,7.969,24.788,24.788,0,0,0,7.922,1.6Z" transform="translate(-43567.707 -56848.145)"/>
    <path id="Path_12" data-name="Path 12" class="cls-1" d="M0,20598.266v1.531a8.5,8.5,0,0,0,8.367,8.762H9.682c4.965,0,12.186-4.09,15.808-7.441l2-1.793a21.353,21.353,0,0,0,1.943-1.988l1.762-2.047c4.395-5.57,8.247-12.055,8.247-19.422,0-3.574-1.633-6.957-4.5-8.328-6.294-3.031-15.157,1.723-19.912,5.574-.371.3-.7.6-1.048.859-.4.3-.6.59-1.006.895a50.041,50.041,0,0,0-6.371,7.074,41.725,41.725,0,0,0-4.216,7.191A27.355,27.355,0,0,0,0,20598.266Z" transform="translate(110.227 -20466.475)"/>
    <path id="Path_16" data-name="Path 16" class="cls-1" d="M49748.7,6.971c0,3.1,3.461,4.836,5.984,5.673,7.094,2.331,18.1,2.2,24-1.785,1.023-.7,2.414-2.011,2.414-3.414a3.3,3.3,0,0,0-.836-2.608c-2.414-3.329-10.117-4.737-13.758-4.737h-.219c-4.734,0-7.258.1-11.906,1.613-2.109.69-5.68,2.673-5.68,5.258Z" transform="translate(-49562.586 68.901)"/>
    <g class="cls-6" transform="matrix(1, 0, 0, 1, 110.23, 69)">
      <path id="Union_1-2" data-name="Union 1" class="cls-3" d="M74.493,121.45A22.642,22.642,0,0,1,64.76,114.3a31.788,31.788,0,0,1-2.487-3.925c-.232-.535-.416-.883-.634-1.387A22.774,22.774,0,0,1,88.909,78.231a24.268,24.268,0,0,1,5.809,2.651l1.874,1.329a23.216,23.216,0,0,1,6.813,9c.184.452.355.89.572,1.448a22.867,22.867,0,0,1-5.232,23.413,13.046,13.046,0,0,1-1.435,1.329l-1.536,1.233a28.749,28.749,0,0,1-3.463,2.081c-3.872,1.776-6.205,2.162-10.708,2.162A22.353,22.353,0,0,1,74.493,121.45Zm44.768-34.741a34.417,34.417,0,0,1-11.407-5.582c-.363-.3-.67-.5-1.023-.794-.376-.305-.688-.54-1.064-.855-1.345-1.11-2.529-2.578-3.96-3.63A28.946,28.946,0,0,0,90.18,70.586a45.559,45.559,0,0,0-20.367.961A27.057,27.057,0,0,0,64.3,73.734a17.6,17.6,0,0,0-3.425,2.343c-1.751,1.445-3.388,2.916-5.287,4.22a34.74,34.74,0,0,1-7.56,3.869c-5.987,2.2-14.584,3.07-19.849-1.233a10.866,10.866,0,0,1-4.376-8.74c0-5.68,2.325-9.545,5.574-13.714l.83-.981c.285-.325.6-.593.91-.9.352-.348.631-.613.969-.953a31.933,31.933,0,0,1,5.227-3.963,21.321,21.321,0,0,1,2.4-1.344l.977-.515a8.482,8.482,0,0,0,3.119-2.757c2.851-3.925,5.633-10.576,2.763-15.621-.474-.832-1.02-.732-2.175-.815a13.765,13.765,0,0,1-6.835-2.152,4.678,4.678,0,0,1-2.293-4.328c0-2.1,1.869-4.336,2.986-5.448a22.919,22.919,0,0,1,4.833-3.486A38.67,38.67,0,0,1,55.6,12.92c5.029-.795,10.89-.658,14.378,1.473a6.181,6.181,0,0,1,1.192.938,6.285,6.285,0,0,1,.951,1.186c1.5,2.164,7.474,2.217,10.137,2.406l4-.272a21.609,21.609,0,0,0,3.491-.7,3.649,3.649,0,0,0,2.351-1.8c3.143-4.308,11.279-4.061,16.71-3.158a38.333,38.333,0,0,1,6.687,1.763,27.833,27.833,0,0,1,10.474,6.208c2.434,2.414,4.054,5.658,1.493,8.654a6.6,6.6,0,0,1-2.538,1.733c-4.937,2.134-12.377,1.45-17.321.061a42.336,42.336,0,0,1-7.628-2.964c-3.581-1.771-2.852-2.109-7.077-3.511a32.574,32.574,0,0,0-4.2-1.054,37.744,37.744,0,0,0-12.524-.033c-1.646.272-3.031.636-4.457,1a18.269,18.269,0,0,0-4.886,1.967c-.32.189-.57.323-.873.52-5.819,3.726-5.319,1.095-7.955,5.612-1.021,1.738-2.57,5.582-2.57,8.291A12.5,12.5,0,0,0,57.748,48.3c.635.928.307.7,1.344,1.006.214.063.341.114.567.187,3.66,1.2,7.131,4.033,7.983,7.724.563,2.444.317,2.406,2.628,3.546,7.144,3.514,17.887,4.139,24.962-.061,1.748-1.042,1.465-.827,2.234-2.772a8.846,8.846,0,0,1,.865-1.7,12.7,12.7,0,0,1,3.887-3.7c2.954-1.9,6.239-2.147,10.06-2.147,4.949,0,11.063,2.361,15.059,4.949.684.452,1.34.865,1.98,1.339a30.819,30.819,0,0,1,9.405,10.543,22.812,22.812,0,0,1,1.032,2.273c1.395,3.531,1.685,8.082-.1,11.547-1.476,2.863-3.983,4.513-6.937,5.67a16.951,16.951,0,0,1-6.109,1A28.866,28.866,0,0,1,119.261,86.709ZM144.483,59.6l-4.827-4.677a39.735,39.735,0,0,0-7.625-5.718c-.424-.255-.787-.451-1.219-.709-3.312-1.967-9.219-4.159-12.854-4.159-4.732,0-8.2-.1-12.721,1.211a37.511,37.511,0,0,0-7.05,3.105l-3.38,1.758c-7.156,4.326-17.208,4.6-24.379.323-2.948-1.781-5.87-4.863-5.87-8.523,0-3.779,1.308-5.383,3.612-7.691,2.571-2.55,8.483-4.646,12.993-4.646h2.481a20.457,20.457,0,0,1,13.106,4.873c1.279,1.107,1.354,1.647,3.4,2.575a32.67,32.67,0,0,0,12.037,2.225,12.511,12.511,0,0,0,2.3.063,8.288,8.288,0,0,1,1.374-.053c.306.005.613.01.928-.005A30.841,30.841,0,0,0,128.3,36.726c.512-.277,1.07-.605,1.544-.913,2.008-1.352,1.226-1.821,2.578-4.454a7.253,7.253,0,0,1,6.109-3.4h1.516c4.747,0,11.419,4.074,14.92,7.519.341.335.577.469.92.8l1.673,1.748c4.858,4.775,10.965,15.651,8.337,22.782a7.584,7.584,0,0,1-1.421,2.414c-2.146,2.136-3.922,2.358-6.843,2.358C153.564,65.584,147.531,62.166,144.483,59.6ZM7.507,65.569A7.629,7.629,0,0,1,0,57.709V56.335a24.57,24.57,0,0,1,2.146-8.2,37.4,37.4,0,0,1,3.781-6.45,44.889,44.889,0,0,1,5.716-6.346c.37-.275.547-.53.905-.8.313-.235.605-.5.938-.774,4.268-3.451,12.219-7.719,17.866-5,2.569,1.233,4.035,4.268,4.035,7.474,0,6.609-3.456,12.428-7.4,17.427L26.41,55.5a19.691,19.691,0,0,1-1.744,1.783l-1.8,1.6c-3.249,3.014-9.729,6.679-14.183,6.679ZM73.47,11.255c-2.269-.752-5.381-2.311-5.381-5.09,0-2.318,3.211-4.1,5.105-4.717C77.361.091,79.629,0,83.872,0h.2c3.27,0,10.174,1.264,12.342,4.25a2.965,2.965,0,0,1,.75,2.341c0,1.259-1.246,2.437-2.162,3.062-3.056,2.065-7.636,2.977-12.186,2.976A30.822,30.822,0,0,1,73.47,11.255Z" transform="translate(9.54 7.04)"/>
    </g>
    <path id="Path_17" data-name="Path 17" class="cls-1" d="M71657.938,96930.352c.594.406,1.078,1.828,4.125,2.219,1.016.141,12.8.031,16.031.141,1.953.094,1.109,3.719.969,3.922a1.921,1.921,0,0,1-1.531.75h-19.5v-4.141C71658.031,96932.133,71657.938,96931.43,71657.938,96930.352Zm-30.969-1.859s0,10.734-.047,13.125c0,1.422-.531,1.172,2.8,1.172h4.063v-13.531c0-5.562,2.594-4.859,8.656-4.859a37.365,37.365,0,0,1,6.438.219c2.234.516,2.328,2.594,2.328,4.531v13.641h26.656c2.281,0,5.125-.016,6.8-1.641a3.339,3.339,0,0,0,1.016-1.719,18.571,18.571,0,0,0,.313-1.937c.109-2.016.234-5.969-1.125-7.547a4.684,4.684,0,0,0-2.875-1.672c-1.906-.469-12.453-.312-15.312-.312-.781,0-1.266-.141-2.156-.141a3.736,3.736,0,0,1-.547-3.031c.438-1.484,1.844-1,2.8-1.078,2.7-.219,10.516.063,11.234-.062.656-.078,1.156-.062,1.8-.156,2.578-.469,4.766-2.062,4.766-4.953h-16.078c-4.484,0-10.969-1.219-11.125,4.859a15.923,15.923,0,0,1-1.062-1.75,5.18,5.18,0,0,0-1.391-1.406,9.983,9.983,0,0,0-4.156-1.5c-2.766-.453-7.844-.2-11.125-.2-5.844,0-11.516.047-12.437,7.313C71627.125,96926.227,71627.016,96928.367,71626.969,96928.492Z" transform="translate(-71240.547 -96822.805)"/>
    <path id="Path_18" data-name="Path 18" class="cls-1" d="M26181.516,97373.875c-1.2,0-7-.266-7.586,0,0-1.094-.008-2.234,0-3.344.008-1.125-.172-2.047-.105-3.25l.223-3.125c.3-3.437,4.234-2.937,7.246-2.937,1.234,0,2.1-.156,3.254-.094.691,0,.91.094,1.629.094,1.281,0,3.535.125,4.352.7,1.352,1.063,1.281,2.422,1.281,3.75,0,2.047.336,2.031-.027,4.906a3.357,3.357,0,0,1-1,2.406,4.248,4.248,0,0,1-2.551.8c-2.355,0-4.434.094-6.719.094Zm-14.414-6.594v21.656h3.8a3.725,3.725,0,0,0,2.926-3.125l.105-6.062c3.988,0,14.73.281,18.191-.469a8.444,8.444,0,0,0,3.754-1.656c3.156-2.453,2.758-7.812,2.758-11.953,0-8.109-3.437-10.312-11.48-10.312-3.324,0-10.918-.25-13.809.5a11.579,11.579,0,0,0-2.16.75,6.763,6.763,0,0,0-2.016,1.563,6.051,6.051,0,0,0-.906,1.359c-1.051,2.141-1.16,5.156-1.16,7.75Z" transform="translate(-25843.678 -97259.078)"/>
    <path id="Path_19" data-name="Path 19" class="cls-2" d="M49151.605,97184.234c-.3-8.047,1.109-11.672-2.969-13.719-2.461-1.219-7.109-1-10.8-1-4.734,0-12.141-.766-15.25,2.406a5.761,5.761,0,0,0-1.164,1.8,8.9,8.9,0,0,0-.641,2.375,57.5,57.5,0,0,0,.047,11.172c1.344,7.969,9.906,6.625,17.008,6.625h8.883c1.117,0,1.875-.109,2.922-.109a5.3,5.3,0,0,0-3.016-4.781c-1.492-.578-5.492-.3-7.609-.3h-7.906c-3.445,0-3.8-.953-3.8-4.141.008-2.078-.219-5.969.148-7.656a2.893,2.893,0,0,1,.656-1.312,1.989,1.989,0,0,1,1.383-.578c2.492-.312,8.938-.2,11.688-.2,4.672-.031,3.8.828,3.8,3.906-3.3,0-6.867-.125-9.969.109-.758.063-1.062-.156-1.961.5-1.7,1.281-2.156,3.547-2.812,4.906h21.359Z" transform="translate(-48765.438 -97073.453)"/>
    <text id="Politeknik_Elektronika_Negeri_Surabaya" data-name="Politeknik Elektronika Negeri Surabaya" class="cls-4" transform="translate(323.424 151.094)"><tspan x="0" y="0">POLITEKNIK ELEKTRONIKA NEGERI SURABAYA</tspan></text>
    <text id="Bridge_to_the_Future" data-name="Bridge to the Future" class="cls-5" transform="translate(323.424 172.374)"><tspan x="0" y="0">Bridge to the Future</tspan></text>
  </g>
</svg>
