<svg xmlns="http://www.w3.org/2000/svg" width="252.94" height="72" viewBox="0 0 252.94 72"><g transform="translate(-4581 999)"><path d="M43.648,71.149a13.232,13.232,0,0,1-5.7-4.18,19.905,19.905,0,0,1-1.461-2.3c-.133-.313-.247-.524-.367-.821A13.337,13.337,0,0,1,52.09,45.836,14.311,14.311,0,0,1,55.5,47.383l1.086.788a13.5,13.5,0,0,1,4,5.258c.11.274.215.532.328.86A13.355,13.355,0,0,1,57.856,68a7.666,7.666,0,0,1-.836.788l-.9.719a17.623,17.623,0,0,1-2.031,1.227A12.737,12.737,0,0,1,47.821,72,12.888,12.888,0,0,1,43.648,71.149ZM69.892,50.812A20.151,20.151,0,0,1,63.2,47.539c-.211-.172-.389-.292-.6-.464s-.4-.319-.624-.5c-.785-.653-1.488-1.512-2.32-2.127a16.908,16.908,0,0,0-6.818-3.084,26.672,26.672,0,0,0-11.928.564,15.713,15.713,0,0,0-3.232,1.282,10.33,10.33,0,0,0-2.01,1.371c-1.02.85-1.985,1.711-3.094,2.473a20.4,20.4,0,0,1-4.433,2.269c-3.5,1.292-8.545,1.8-11.632-.72a6.383,6.383,0,0,1-2.565-5.124c0-3.325,1.367-5.593,3.271-8.037l.486-.574c.168-.189.35-.347.534-.531.2-.2.365-.357.566-.559a19.019,19.019,0,0,1,3.061-2.32,12.933,12.933,0,0,1,1.406-.789l.577-.3a4.951,4.951,0,0,0,1.826-1.615c1.673-2.3,3.3-6.195,1.621-9.152-.279-.488-.6-.429-1.275-.481a8.071,8.071,0,0,1-4.01-1.257,2.751,2.751,0,0,1-1.337-2.537,5.322,5.322,0,0,1,1.746-3.191,13.323,13.323,0,0,1,2.838-2.045,22.6,22.6,0,0,1,7.329-2.514c2.949-.467,6.378-.387,8.423.861a3.742,3.742,0,0,1,.7.551,3.635,3.635,0,0,1,.553.7c.875,1.264,4.383,1.3,5.937,1.407l2.348-.158a12.775,12.775,0,0,0,2.04-.41A2.164,2.164,0,0,0,53.98,9.467c1.838-2.525,6.6-2.381,9.787-1.85a22.538,22.538,0,0,1,3.92,1.033,16.293,16.293,0,0,1,6.133,3.636C75.248,13.7,76.2,15.6,74.7,17.359a3.9,3.9,0,0,1-1.492,1.013c-2.888,1.253-7.248.851-10.15.038a25.22,25.22,0,0,1-4.471-1.739c-2.093-1.037-1.666-1.234-4.142-2.057A18.676,18.676,0,0,0,51.984,14a22.1,22.1,0,0,0-7.34-.019c-.965.16-1.778.373-2.615.584a10.519,10.519,0,0,0-2.859,1.154c-.189.112-.334.19-.511.3C35.25,18.2,35.541,16.66,34,19.307a11.775,11.775,0,0,0-1.506,4.859A7.325,7.325,0,0,0,33.845,28.3c.365.544.178.41.786.59.127.037.2.064.332.109a6.856,6.856,0,0,1,4.676,4.523c.332,1.434.184,1.415,1.545,2.081,4.181,2.058,10.478,2.425,14.622-.035,1.03-.614.861-.487,1.317-1.625a5.086,5.086,0,0,1,.5-1,7.454,7.454,0,0,1,2.275-2.17c1.734-1.109,3.654-1.255,5.894-1.255a18.069,18.069,0,0,1,8.825,2.9c.4.261.786.5,1.16.781A18.112,18.112,0,0,1,81.3,39.385c.224.455.412.842.6,1.332a8.546,8.546,0,0,1-.06,6.767,7.179,7.179,0,0,1-4.061,3.323,9.987,9.987,0,0,1-3.587.584A16.928,16.928,0,0,1,69.892,50.812ZM4.4,38.424A4.471,4.471,0,0,1,0,33.818V33.01a14.393,14.393,0,0,1,1.257-4.8,21.973,21.973,0,0,1,2.217-3.783,26.08,26.08,0,0,1,3.349-3.717c.217-.164.319-.312.529-.471.184-.14.356-.3.552-.453,2.5-2.024,7.16-4.528,10.469-2.932a4.757,4.757,0,0,1,2.365,4.383c0,3.875-2.026,7.277-4.336,10.213l-.927,1.072a9.976,9.976,0,0,1-1.022,1.043l-1.052.949c-1.9,1.756-5.7,3.908-8.311,3.908ZM43.051,6.6C41.715,6.155,39.9,5.242,39.9,3.613c0-1.359,1.883-2.4,2.993-2.765A16.927,16.927,0,0,1,49.153,0h.117C51.184,0,55.23.741,56.5,2.49a1.714,1.714,0,0,1,.438,1.372,2.58,2.58,0,0,1-1.266,1.795A13.226,13.226,0,0,1,48.529,7.4,18.078,18.078,0,0,1,43.051,6.6Z" transform="translate(4581 -999)" fill="#14477a"/><path d="M47174.594,20605.418h-1.453c-2.648,0-6.117,1.227-7.617,2.723-1.352,1.348-2.117,2.289-2.117,4.5,0,2.145,1.7,3.953,3.438,4.992a14.46,14.46,0,0,0,14.3-.184l1.969-1.031a22.013,22.013,0,0,1,4.125-1.824,24.358,24.358,0,0,1,7.461-.711,18.193,18.193,0,0,1,7.531,2.445c.25.145.461.262.711.41a23.128,23.128,0,0,1,4.477,3.359l2.82,2.738c1.8,1.5,5.328,3.5,7.711,3.5,1.7,0,2.75-.133,4.008-1.383a4.379,4.379,0,0,0,.836-1.418c1.539-4.172-2.039-10.551-4.891-13.348l-.977-1.023c-.2-.2-.336-.277-.531-.469-2.055-2.02-5.969-4.406-8.75-4.406h-.883a4.244,4.244,0,0,0-3.586,1.992c-.789,1.535-.336,1.813-1.516,2.605a9.213,9.213,0,0,1-.9.531,17.922,17.922,0,0,1-6.75,1.66c-.461.027-.906-.031-1.352.035a7.365,7.365,0,0,1-1.352-.039,19.027,19.027,0,0,1-7.047-1.3,5.631,5.631,0,0,1-1.992-1.512,11.991,11.991,0,0,0-7.672-2.848Z" transform="translate(-42544.578 -21586.916)" fill="#f3c804" fill-rule="evenodd"/><path d="M0,39.055v-24.7C0,11.4.122,7.961,1.317,5.508A6.3,6.3,0,0,1,2.348,3.946a7,7,0,0,1,2.3-1.766,11.5,11.5,0,0,1,2.465-.875C10.41.446,19.07.743,22.867.743c9.172,0,13.094,2.516,13.094,11.734,0,4.75.456,10.843-3.141,13.672a9.876,9.876,0,0,1-4.281,1.875c-3.953.844-16.2.516-20.75.516l-.13,6.922c-.07,2.172-2.547,3.594-3.332,3.594ZM16.438,21.867c2.605,0,4.981-.094,7.664-.125a4.786,4.786,0,0,0,2.913-.922,3.778,3.778,0,0,0,1.129-2.7c.41-3.3.031-3.265.031-5.64.008-1.5.086-3.063-1.461-4.234-.93-.672-3.507-.828-4.961-.828-.82,0-1.07-.125-1.851-.125-1.325-.031-2.309.125-3.715.125-3.442,0-7.922-.594-8.269,3.359L7.66,14.351c-.07,1.36.137,2.407.13,3.7-.013,1.265,0,2.547,0,3.812a9.461,9.461,0,0,1,2.23-.139C12.276,21.729,15.521,21.867,16.438,21.867ZM71.8,26.446c.032-2.735.032-14.985.032-14.985.078-.125.187-2.562.281-3.031C73.172.133,79.593.117,86.281.117c3.742,0,9.547-.3,12.711.25a10.812,10.812,0,0,1,4.727,1.719,5.56,5.56,0,0,1,1.609,1.594,19.567,19.567,0,0,0,1.2,1.984c.157-6.937,7.586-5.547,12.711-5.547H137.57c0,3.281-2.532,5.126-5.453,5.656-.719.125-1.3.078-2.055.2-.354.055-2.275.022-4.576-.011-2.937-.041-6.493-.083-8.205.058a6.278,6.278,0,0,1-.834,0c-.965-.039-2-.077-2.376,1.232a4.218,4.218,0,0,0,.625,3.469c1,0,1.57.141,2.453.141,3.258,0,15.3-.188,17.461.359a5.579,5.579,0,0,1,3.289,1.891c1.532,1.8,1.407,6.313,1.266,8.64a15.207,15.207,0,0,1-.36,2.219,3.845,3.845,0,0,1-1.132,1.953c-1.922,1.828-5.156,1.859-7.766,1.859H99.492V12.242c0-2.234-.1-4.594-2.657-5.171a39.846,39.846,0,0,0-7.343-.282c-6.9,0-9.9-.8-9.9,5.578V27.789H75.016c-.975,0-1.663.019-2.145.019C71.475,27.808,71.793,27.653,71.8,26.446ZM107.289,16.9v4.719h22.234a2.155,2.155,0,0,0,1.742-.843c.179-.266,1.148-4.391-1.118-4.485-3.664-.125-17.1,0-18.265-.14-3.469-.454-4.046-2.063-4.719-2.579C107.164,14.836,107.289,15.648,107.289,16.9Z" transform="translate(4694.697 -982.555)" fill="#14477a"/><path d="M49155.965,97186.3c-.328-9.172,1.258-13.312-3.375-15.641-2.8-1.391-8.109-1.156-12.32-1.156-5.406,0-13.844-.859-17.406,2.734a8.08,8.08,0,0,0-1.32,2.047,9.83,9.83,0,0,0-.727,2.734,66.244,66.244,0,0,0,.039,12.75c1.539,9.094,11.313,7.547,19.414,7.547h10.125c1.289,0,2.141-.109,3.344-.109-.227-2.641-1.43-4.625-3.445-5.469-1.7-.687-6.258-.359-8.68-.359h-9.023c-3.922,0-4.336-1.062-4.32-4.7.008-2.375-.258-6.8.164-8.719a3.284,3.284,0,0,1,.734-1.516,2.489,2.489,0,0,1,1.57-.656c2.852-.359,10.2-.219,13.344-.219,5.336-.016,4.336.938,4.336,4.453-3.75,0-7.844-.156-11.383.109-.852.078-1.2-.172-2.234.594-1.922,1.453-2.445,4.016-3.187,5.578h24.352Z" transform="translate(-44389.703 -98151.563)" fill="#f3c804" fill-rule="evenodd"/></g></svg>