<svg xmlns="http://www.w3.org/2000/svg" xmlns:xlink="http://www.w3.org/1999/xlink" width="63.883" height="63.883" viewBox="0 0 63.883 63.883"><defs><filter id="a" x="12.019" y="8.064" width="39.711" height="26.305" filterUnits="userSpaceOnUse"><feOffset dy="1" input="SourceAlpha"/><feGaussianBlur stdDeviation="0.25" result="b"/><feFlood flood-opacity="0.102"/><feComposite operator="in" in2="b"/><feComposite in="SourceGraphic"/></filter><filter id="c" x="25.316" y="13.125" width="34.777" height="14.025" filterUnits="userSpaceOnUse"><feOffset dy="1" input="SourceAlpha"/><feGaussianBlur stdDeviation="0.25" result="d"/><feFlood flood-opacity="0.102"/><feComposite operator="in" in2="d"/><feComposite in="SourceGraphic"/></filter><filter id="e" x="23.793" y="29.23" width="16.289" height="16.613" filterUnits="userSpaceOnUse"><feOffset dy="1" input="SourceAlpha"/><feGaussianBlur stdDeviation="0.25" result="f"/><feFlood flood-opacity="0.102"/><feComposite operator="in" in2="f"/><feComposite in="SourceGraphic"/></filter><filter id="g" x="4.25" y="13.107" width="13.049" height="14.041" filterUnits="userSpaceOnUse"><feOffset dy="1" input="SourceAlpha"/><feGaussianBlur stdDeviation="0.25" result="h"/><feFlood flood-opacity="0.102"/><feComposite operator="in" in2="h"/><feComposite in="SourceGraphic"/></filter><filter id="i" x="26.473" y="4" width="10.988" height="5.871" filterUnits="userSpaceOnUse"><feOffset dy="1" input="SourceAlpha"/><feGaussianBlur stdDeviation="0.25" result="j"/><feFlood flood-opacity="0.102"/><feComposite operator="in" in2="j"/><feComposite in="SourceGraphic"/></filter><filter id="k" x="36.953" y="48.219" width="22.172" height="10.148" filterUnits="userSpaceOnUse"><feOffset dy="1" input="SourceAlpha"/><feGaussianBlur stdDeviation="0.25" result="l"/><feFlood flood-opacity="0.102"/><feComposite operator="in" in2="l"/><feComposite in="SourceGraphic"/></filter><filter id="m" x="14.648" y="48.43" width="12.361" height="13.32" filterUnits="userSpaceOnUse"><feOffset dy="1" input="SourceAlpha"/><feGaussianBlur stdDeviation="0.25" result="n"/><feFlood flood-opacity="0.102"/><feComposite operator="in" in2="n"/><feComposite in="SourceGraphic"/></filter><filter id="o" x="25.793" y="48.336" width="12.203" height="10.203" filterUnits="userSpaceOnUse"><feOffset dy="1" input="SourceAlpha"/><feGaussianBlur stdDeviation="0.25" result="p"/><feFlood flood-opacity="0.102"/><feComposite operator="in" in2="p"/><feComposite in="SourceGraphic"/></filter></defs><g transform="translate(-4998 990)"><rect width="63.883" height="63.883" transform="translate(4998 -990)" fill="none"/><g transform="translate(2.476 -2.859)"><g transform="matrix(1, 0, 0, 1, 4995.52, -987.14)" filter="url(#a)"><path d="M17396.141,9185.8a1.528,1.528,0,0,0,.754,1.413,4.461,4.461,0,0,0,2.229.7c.381.029.553,0,.711.269.938,1.646.025,3.816-.9,5.1a2.756,2.756,0,0,1-1.02.9l-.318.168a6.9,6.9,0,0,0-.781.439,10.538,10.538,0,0,0-1.707,1.292c-.109.113-.2.2-.314.313s-.2.188-.3.295l-.266.319a6.873,6.873,0,0,0-1.822,4.475,3.549,3.549,0,0,0,1.428,2.852c1.719,1.405,4.523,1.122,6.48.4a11.531,11.531,0,0,0,2.467-1.263c.619-.425,1.154-.905,1.723-1.377a5.8,5.8,0,0,1,1.119-.765,8.705,8.705,0,0,1,1.8-.713,14.848,14.848,0,0,1,6.648-.313,9.415,9.415,0,0,1,3.787,1.716c.473.344.857.823,1.3,1.186.123.1.225.18.342.277s.221.164.34.261a11.241,11.241,0,0,0,3.723,1.822,7.654,7.654,0,0,0,4.393,0,4.009,4.009,0,0,0,2.262-1.849,4.78,4.78,0,0,0,.031-3.771,8.131,8.131,0,0,0-.336-.742,10.034,10.034,0,0,0-3.072-3.438c-.207-.155-.422-.29-.643-.438a10.052,10.052,0,0,0-4.918-1.615,5.744,5.744,0,0,0-3.277.7,4.144,4.144,0,0,0-1.271,1.209,2.572,2.572,0,0,0-.279.553c-.254.636-.158.563-.73.9a9.265,9.265,0,0,1-8.146.022c-.752-.372-.676-.363-.855-1.16a3.814,3.814,0,0,0-2.607-2.519c-.076-.024-.115-.041-.187-.063-.338-.1-.23-.024-.437-.327a4.08,4.08,0,0,1-.748-2.3,6.508,6.508,0,0,1,.836-2.706c.859-1.473.7-.614,2.594-1.83.1-.064.182-.107.283-.169a6.073,6.073,0,0,1,1.6-.643c.469-.116.92-.236,1.453-.325a12.34,12.34,0,0,1,4.086.01,9.354,9.354,0,0,1,3.682,1.491,13.784,13.784,0,0,0,2.488.967,9.48,9.48,0,0,0,5.654-.02,2.191,2.191,0,0,0,.828-.565c.83-.979.309-2.035-.486-2.824a9.126,9.126,0,0,0-3.418-2.026,12.57,12.57,0,0,0-2.184-.574c-1.773-.295-4.428-.377-5.453,1.03a1.2,1.2,0,0,1-.77.587,6.909,6.909,0,0,1-1.139.227l-1.3.089c-.871-.062-2.82-.08-3.309-.785a1.883,1.883,0,0,0-.312-.389,2.08,2.08,0,0,0-.383-.306,7.579,7.579,0,0,0-4.693-.479,12.59,12.59,0,0,0-4.086,1.4,7.331,7.331,0,0,0-1.576,1.139A2.96,2.96,0,0,0,17396.141,9185.8Z" transform="translate(-17379.63 -9173.27)" fill="#14477a" fill-rule="evenodd"/></g><g transform="matrix(1, 0, 0, 1, 4995.52, -987.14)" filter="url(#c)"><path d="M47169.621,20604.92h-.809a6.945,6.945,0,0,0-4.238,1.52,3.054,3.054,0,0,0-1.18,2.508,3.566,3.566,0,0,0,1.914,2.781,8.048,8.048,0,0,0,7.965-.107l1.094-.57a12.522,12.522,0,0,1,2.3-1.012,13.411,13.411,0,0,1,4.16-.4,10.231,10.231,0,0,1,4.2,1.359c.129.084.246.148.387.23a12.576,12.576,0,0,1,2.48,1.865l1.582,1.527a8.4,8.4,0,0,0,4.293,1.951,2.66,2.66,0,0,0,2.234-.77,2.437,2.437,0,0,0,.461-.789c.859-2.324-1.133-5.873-2.727-7.43l-.535-.572c-.113-.107-.2-.154-.3-.26-1.141-1.127-3.32-2.455-4.867-2.455h-.492a2.386,2.386,0,0,0-2,1.107c-.441.859-.184,1.016-.84,1.453-.152.1-.336.205-.5.3a10,10,0,0,1-3.762.922c-.25.014-.5-.018-.75.018a4.022,4.022,0,0,1-.754-.018,10.584,10.584,0,0,1-3.918-.729,3.386,3.386,0,0,1-1.113-.838,6.652,6.652,0,0,0-4.281-1.594Z" transform="translate(-47137.33 -20591.17)" fill="#f3c804" fill-rule="evenodd"/></g><g transform="matrix(1, 0, 0, 1, 4995.52, -987.14)" filter="url(#e)"><path d="M43751.758,57018.2a7.079,7.079,0,0,0,3.492-.715,9.423,9.423,0,0,0,1.133-.676l.5-.406a3.583,3.583,0,0,0,.469-.434,7.47,7.47,0,0,0,1.719-7.637c-.082-.191-.137-.32-.2-.469a7.533,7.533,0,0,0-2.219-2.945l-.609-.434a8.345,8.345,0,0,0-1.891-.859,7.434,7.434,0,0,0-8.906,10.031c.078.164.129.277.2.453a9.519,9.519,0,0,0,.828,1.281,7.318,7.318,0,0,0,3.156,2.34,7.693,7.693,0,0,0,2.332.469Z" transform="translate(-43720.13 -56974.1)" fill="#14477a" fill-rule="evenodd"/></g><g transform="matrix(1, 0, 0, 1, 4995.52, -987.14)" filter="url(#g)"><path d="M0,20575.85v.453a2.487,2.487,0,0,0,2.45,2.563h.385a8.478,8.478,0,0,0,4.628-2.176l.586-.521a7.05,7.05,0,0,0,.569-.588l.516-.6a9.426,9.426,0,0,0,2.415-5.684,2.648,2.648,0,0,0-1.317-2.441c-1.843-.885-4.438.5-5.83,1.633-.109.086-.2.176-.307.252-.117.092-.174.172-.295.262a14.79,14.79,0,0,0-1.865,2.07A12.476,12.476,0,0,0,.7,20573.18a8,8,0,0,0-.7,2.67Z" transform="translate(5 -20553.47)" fill="#14477a" fill-rule="evenodd"/></g><g transform="matrix(1, 0, 0, 1, 4995.52, -987.14)" filter="url(#i)"><path d="M49748.7,2.111c0,.907,1.016,1.416,1.754,1.661,2.074.682,5.3.645,7.023-.523a1.443,1.443,0,0,0,.711-1,.954.954,0,0,0-.25-.764c-.7-.975-2.961-1.387-4.031-1.387h-.062a9.424,9.424,0,0,0-3.484.472c-.613.2-1.66.783-1.66,1.539Z" transform="translate(-49721.48 3.9)" fill="#14477a" fill-rule="evenodd"/></g><g transform="matrix(1, 0, 0, 1, 4995.52, -987.14)" filter="url(#k)"><path d="M71637.57,96922.531a1.971,1.971,0,0,0,1.406.789c.375.031,4.422,0,5.531.031.688.023.383,1.281.336,1.359a.691.691,0,0,1-.531.25h-6.711v-1.422C71637.6,96923.156,71637.57,96922.906,71637.57,96922.531Zm-10.992-.672v4.523c0,.492.125.453,1.281.453h1.4v-4.664c0-1.93.891-1.672,2.977-1.672a12.87,12.87,0,0,1,2.219.055c.766.18.8.906.8,1.563v4.719h9.18a3.327,3.327,0,0,0,2.344-.578,1.232,1.232,0,0,0,.359-.594c.016-.148.086-.484.1-.656a4.642,4.642,0,0,0-.383-2.609,1.719,1.719,0,0,0-1-.57c-.656-.164-4.3-.1-5.273-.1-.258,0-.437-.055-.727-.055a1.212,1.212,0,0,1-.2-1.047c.156-.5.641-.352.961-.367.938-.086,3.625.016,3.859-.023s.4-.031.625-.062a1.732,1.732,0,0,0,1.641-1.7h-5.523c-1.547,0-3.789-.422-3.844,1.672a3.929,3.929,0,0,1-.359-.6,1.729,1.729,0,0,0-.477-.477,3.663,3.663,0,0,0-1.437-.523,29.17,29.17,0,0,0-3.828-.07c-2.008,0-4.289-.023-4.594,2.492C71626.641,96921.078,71626.6,96921.82,71626.578,96921.859Z" transform="translate(-71588.88 -96870.22)" fill="#14477a" fill-rule="evenodd"/></g><g transform="matrix(1, 0, 0, 1, 4995.52, -987.14)" filter="url(#m)"><path d="M26172.066,97361.7a24.25,24.25,0,0,0-2.615,0v-1.148c0-.4-.055-.711-.033-1.133l.076-1.055c.1-1.2,1.459-1.031,2.5-1.031.422,0,.719-.039,1.123-.023.234,0,.307.023.559.023a3.533,3.533,0,0,1,1.5.242,1.439,1.439,0,0,1,.443,1.3,7.586,7.586,0,0,1-.008,1.688,1.235,1.235,0,0,1-.346.836,1.545,1.545,0,0,1-.879.273c-.812,0-1.527.023-2.312.023Zm-4.965-2.281v7.469h1.309a1.289,1.289,0,0,0,1.008-1.07l.033-2.094a49.855,49.855,0,0,0,6.264-.164,3.064,3.064,0,0,0,1.3-.562c1.086-.852.943-2.7.943-4.117,0-2.789-1.18-3.547-3.949-3.547a28.771,28.771,0,0,0-4.758.172,3.385,3.385,0,0,0-.742.258,2.439,2.439,0,0,0-.7.531,1.886,1.886,0,0,0-.312.484,6.313,6.313,0,0,0-.4,2.641Z" transform="translate(-26151.7 -97306.89)" fill="#14477a" fill-rule="evenodd"/></g><g transform="matrix(1, 0, 0, 1, 4995.52, -987.14)" filter="url(#o)"><path d="M49131.234,97174.531c-.105-2.766.379-4.016-1.02-4.719a10.2,10.2,0,0,0-3.73-.344c-1.617,0-4.172-.266-5.246.836a1.688,1.688,0,0,0-.4.617,2.8,2.8,0,0,0-.219.813,20.1,20.1,0,0,0,0,3.852c.469,2.727,3.418,2.281,5.859,2.281h3.063c.391,0,.648-.039,1.012-.039a1.832,1.832,0,0,0-1.047-1.656,11.656,11.656,0,0,0-2.613-.1h-2.727c-1.184,0-1.309-.312-1.309-1.414a18.231,18.231,0,0,1,.051-2.641,1.141,1.141,0,0,1,.227-.469.71.71,0,0,1,.477-.18c.859-.109,3.082-.07,4.016-.07,1.621-.008,1.324.266,1.324,1.344-1.133,0-2.371-.039-3.437.031-.258.016-.363-.062-.68.18a4.088,4.088,0,0,0-.965,1.68h7.359Z" transform="translate(-49093.99 -97121.1)" fill="#f3c804" fill-rule="evenodd"/></g></g></g></svg>