<svg xmlns="http://www.w3.org/2000/svg" xmlns:xlink="http://www.w3.org/1999/xlink" width="64" height="64" viewBox="0 0 64 64"><defs><filter id="a" x="9.756" y="14.451" width="43.342" height="28.639" filterUnits="userSpaceOnUse"><feOffset dy="1" input="SourceAlpha"/><feGaussianBlur stdDeviation="0.25" result="b"/><feFlood flood-opacity="0.102"/><feComposite operator="in" in2="b"/><feComposite in="SourceGraphic"/></filter><filter id="c" x="24.32" y="19.992" width="37.945" height="15.193" filterUnits="userSpaceOnUse"><feOffset dy="1" input="SourceAlpha"/><feGaussianBlur stdDeviation="0.25" result="d"/><feFlood flood-opacity="0.102"/><feComposite operator="in" in2="d"/><feComposite in="SourceGraphic"/></filter><filter id="e" x="22.648" y="37.633" width="17.695" height="18.023" filterUnits="userSpaceOnUse"><feOffset dy="1" input="SourceAlpha"/><feGaussianBlur stdDeviation="0.25" result="f"/><feFlood flood-opacity="0.102"/><feComposite operator="in" in2="f"/><feComposite in="SourceGraphic"/></filter><filter id="g" x="1.25" y="19.971" width="14.146" height="15.209" filterUnits="userSpaceOnUse"><feOffset dy="1" input="SourceAlpha"/><feGaussianBlur stdDeviation="0.25" result="h"/><feFlood flood-opacity="0.102"/><feComposite operator="in" in2="h"/><feComposite in="SourceGraphic"/></filter><filter id="i" x="25.582" y="10" width="11.887" height="6.263" filterUnits="userSpaceOnUse"><feOffset dy="1" input="SourceAlpha"/><feGaussianBlur stdDeviation="0.25" result="j"/><feFlood flood-opacity="0.102"/><feComposite operator="in" in2="j"/><feComposite in="SourceGraphic"/></filter></defs><g transform="translate(-4930 990)"><rect width="64" height="64" transform="translate(4930 -990)" fill="none"/><g transform="translate(-0.512 -0.046)"><g transform="matrix(1, 0, 0, 1, 4930.51, -989.95)" filter="url(#a)"><path d="M17396.5,9186.228a1.678,1.678,0,0,0,.82,1.547,4.906,4.906,0,0,0,2.443.767c.414.032.605,0,.777.293,1.025,1.8.029,4.18-.988,5.582a3.028,3.028,0,0,1-1.115.985l-.35.183a7.96,7.96,0,0,0-.857.481,11.551,11.551,0,0,0-1.869,1.415c-.117.123-.219.217-.344.342-.113.109-.223.206-.326.323l-.295.351a7.529,7.529,0,0,0-1.992,4.9,3.878,3.878,0,0,0,1.563,3.123c1.883,1.537,4.953,1.229,7.094.439a12.41,12.41,0,0,0,2.7-1.382c.68-.465,1.264-.991,1.889-1.508a6.291,6.291,0,0,1,1.227-.838,9.56,9.56,0,0,1,1.969-.78,16.26,16.26,0,0,1,7.277-.344,10.317,10.317,0,0,1,4.152,1.881c.516.376.938.9,1.416,1.3.137.112.248.2.379.3s.238.179.369.285a12.306,12.306,0,0,0,4.076,2,8.387,8.387,0,0,0,4.811,0,4.388,4.388,0,0,0,2.479-2.026,5.232,5.232,0,0,0,.035-4.127c-.117-.3-.23-.535-.369-.813a11.037,11.037,0,0,0-3.363-3.765c-.229-.171-.465-.318-.707-.479a11.005,11.005,0,0,0-5.383-1.769,6.284,6.284,0,0,0-3.59.768,4.517,4.517,0,0,0-1.393,1.322,3.047,3.047,0,0,0-.309.606c-.273.7-.172.618-.8.991-2.529,1.5-6.367,1.277-8.92.022-.824-.408-.74-.4-.937-1.269a4.182,4.182,0,0,0-2.852-2.76c-.084-.025-.127-.045-.205-.068-.373-.107-.256-.027-.48-.357a4.484,4.484,0,0,1-.824-2.523,7.164,7.164,0,0,1,.918-2.963c.941-1.613.764-.674,2.842-2,.109-.07.2-.117.311-.186a6.576,6.576,0,0,1,1.748-.7c.512-.129,1.006-.26,1.592-.356a13.494,13.494,0,0,1,4.475.011,10.223,10.223,0,0,1,4.031,1.632,15.179,15.179,0,0,0,2.725,1.06,10.373,10.373,0,0,0,6.189-.022,2.37,2.37,0,0,0,.908-.618c.914-1.072.338-2.229-.533-3.094a9.946,9.946,0,0,0-3.742-2.218,13.661,13.661,0,0,0-2.391-.63c-1.939-.323-4.848-.411-5.971,1.129a1.31,1.31,0,0,1-.844.642,7.382,7.382,0,0,1-1.246.249l-1.428.1c-.953-.069-3.086-.088-3.623-.861a2.188,2.188,0,0,0-.34-.424,2.3,2.3,0,0,0-.426-.336c-1.246-.761-3.34-.809-5.137-.524a13.779,13.779,0,0,0-4.473,1.534,8.016,8.016,0,0,0-1.727,1.247A3.232,3.232,0,0,0,17396.5,9186.228Z" transform="translate(-17381.9 -9166.88)" fill="#14477a" fill-rule="evenodd"/></g><g transform="matrix(1, 0, 0, 1, 4930.51, -989.95)" filter="url(#c)"><path d="M47170.219,20604.979h-.887a7.636,7.636,0,0,0-4.648,1.662,3.357,3.357,0,0,0-1.289,2.746,3.893,3.893,0,0,0,2.1,3.047,8.811,8.811,0,0,0,8.719-.117l1.2-.625a13.528,13.528,0,0,1,2.52-1.109,14.712,14.712,0,0,1,4.551-.434,11.1,11.1,0,0,1,4.59,1.488c.148.092.281.16.43.252a13.964,13.964,0,0,1,2.727,2.043l1.723,1.672a9.221,9.221,0,0,0,4.7,2.137,2.9,2.9,0,0,0,2.445-.844,2.675,2.675,0,0,0,.512-.861c.938-2.547-1.246-6.434-2.988-8.139l-.594-.625c-.117-.119-.207-.17-.324-.285-1.25-1.234-3.637-2.689-5.332-2.689h-.543a2.589,2.589,0,0,0-2.184,1.215c-.484.939-.2,1.111-.922,1.59-.168.109-.371.227-.551.328a10.991,10.991,0,0,1-4.117,1.01c-.281.014-.555-.02-.824.018a4.392,4.392,0,0,1-.82-.018,11.674,11.674,0,0,1-4.3-.8,3.612,3.612,0,0,1-1.215-.918,7.3,7.3,0,0,0-4.684-1.744Z" transform="translate(-47138.32 -20584.3)" fill="#f3c804" fill-rule="evenodd"/></g><g transform="matrix(1, 0, 0, 1, 4930.51, -989.95)" filter="url(#e)"><path d="M43752.43,57019.609a7.829,7.829,0,0,0,3.824-.773,12.569,12.569,0,0,0,1.242-.742l.543-.445a4.331,4.331,0,0,0,.516-.477,8.18,8.18,0,0,0,1.875-8.367c-.078-.2-.145-.352-.211-.516a8.259,8.259,0,0,0-2.434-3.219l-.66-.469a8.529,8.529,0,0,0-2.078-.945,8.138,8.138,0,0,0-9.75,10.984c.086.18.145.3.219.492a10.246,10.246,0,0,0,.906,1.406,8.022,8.022,0,0,0,3.461,2.563,8.278,8.278,0,0,0,2.547.508Z" transform="translate(-43721.27 -56965.7)" fill="#14477a" fill-rule="evenodd"/></g><g transform="matrix(1, 0, 0, 1, 4930.51, -989.95)" filter="url(#g)"><path d="M0,20576.732v.492a2.726,2.726,0,0,0,2.683,2.809H3.1c1.592,0,3.907-1.311,5.068-2.385l.642-.572a7.131,7.131,0,0,0,.623-.641l.565-.658a10.311,10.311,0,0,0,2.644-6.225,2.9,2.9,0,0,0-1.442-2.672c-2.018-.969-4.86.553-6.384,1.789-.119.1-.224.193-.336.275-.128.1-.191.189-.323.287a16.042,16.042,0,0,0-2.043,2.268,13.591,13.591,0,0,0-1.352,2.3,8.781,8.781,0,0,0-.766,2.928Z" transform="translate(2 -20546.6)" fill="#14477a" fill-rule="evenodd"/></g><g transform="matrix(1, 0, 0, 1, 4930.51, -989.95)" filter="url(#i)"><path d="M49748.7,2.3c0,.993,1.109,1.55,1.922,1.819,2.266.747,5.8.707,7.688-.572a1.582,1.582,0,0,0,.777-1.095,1.055,1.055,0,0,0-.27-.836C49758.047.551,49755.57.1,49754.4.1h-.07a10.3,10.3,0,0,0-3.812.517c-.676.221-1.82.857-1.82,1.686Z" transform="translate(-49722.37 9.9)" fill="#14477a" fill-rule="evenodd"/></g></g></g></svg>