<svg xmlns="http://www.w3.org/2000/svg" width="36.627" height="24" viewBox="0 0 36.627 24"><defs><style>.a{fill:#fff;}.b{fill:#012169;}.c{fill:#c8102e;}</style></defs><g transform="translate(-2468.588 2221.475)"><path class="a" d="M0,24V0H36.619V24Z" transform="translate(2468.588 -2221.475)"/><g transform="translate(2468.588 -2221.475)"><path class="b" d="M2451-2233l14.3,7.347V-2233Z" transform="translate(-2451 2233)"/><path class="b" d="M2451-2208.156h4.905l-4.905-2.439Z" transform="translate(-2451 2216.533)"/><path class="c" d="M2451-2221.513v1.8l6.631,3.265h3.6Z" transform="translate(-2451 2224.729)"/></g><g transform="translate(2490.914 -2205.888)"><path class="b" d="M2465.3-2225.653,2451-2233v7.347Z" transform="translate(-2451 2234.03)"/><path class="b" d="M2455.905-2210.595H2451l4.905,2.439Z" transform="translate(-2441.604 2210.595)"/><path class="c" d="M2461.233-2216.448v-1.8l-6.631-3.264H2451Z" transform="translate(-2446.932 2221.608)"/></g><g transform="translate(2490.856 -2221.475)"><path class="b" d="M2465.3-2233l-14.3,7.347V-2233Z" transform="translate(-2451 2233)"/><path class="b" d="M2455.905-2208.156H2451l4.905-2.439Z" transform="translate(-2441.598 2216.286)"/><path class="c" d="M2450.19-2221.513v1.8l-10.262,5.127h-3.6Z" transform="translate(-2435.832 2222.75)"/></g><g transform="translate(2468.588 -2205.676)"><path class="b" d="M2451-2225.653l14.3-7.347v7.347Z" transform="translate(-2450.942 2233.818)"/><path class="b" d="M2451-2210.595h4.905l-4.905,2.439Z" transform="translate(-2450.948 2210.63)"/><path class="c" d="M2436.327-2214.585v-1.8l10.262-5.127h3.6Z" transform="translate(-2436.327 2221.513)"/></g><path class="c" d="M15.835,24V14.474H0V9.526H15.835V0h4.948V9.526H36.618v4.948H20.783V24Z" transform="translate(2468.588 -2221.475)"/></g></svg>